<?xml version="1.0" encoding="UTF-8"?>
<svg xmlns="http://www.w3.org/2000/svg" width="900" height="700" viewBox="0 0 900 700">
<rect width="100%" height="100%" fill="#f8f9fa"/>
<g stroke="#8e9aaf" stroke-width="1.5">
  <line x1="740.101" y1="359.899" x2="459.899" y2="640.101"/>
  <text x="600" y="500" font-size="9" fill="#6c757d" text-anchor="middle" dominant-baseline="middle">0.90</text>
  <line x1="736" y1="350" x2="164" y2="350"/>
  <text x="450" y="350" font-size="9" fill="#6c757d" text-anchor="middle" dominant-baseline="middle">0.90</text>
  <line x1="740.101" y1="340.101" x2="459.899" y2="59.8995"/>
  <text x="600" y="200" font-size="9" fill="#6c757d" text-anchor="middle" dominant-baseline="middle">0.90</text>
  <line x1="440.101" y1="640.101" x2="159.899" y2="359.899"/>
  <text x="300" y="500" font-size="9" fill="#6c757d" text-anchor="middle" dominant-baseline="middle">0.90</text>
  <line x1="450" y1="636" x2="450" y2="64"/>
  <text x="450" y="350" font-size="9" fill="#6c757d" text-anchor="middle" dominant-baseline="middle">0.90</text>
  <line x1="159.899" y1="340.101" x2="440.101" y2="59.8995"/>
  <text x="300" y="200" font-size="9" fill="#6c757d" text-anchor="middle" dominant-baseline="middle">0.90</text>
</g>
<g font-family="sans-serif" font-size="11" font-weight="bold">
  <circle cx="750" cy="350" r="14" fill="#27ae60" stroke="#145a32" stroke-width="1.5"/>
  <text x="750" y="350" text-anchor="middle" dominant-baseline="middle" fill="white">0</text>
  <circle cx="450" cy="650" r="14" fill="#e74c3c" stroke="#7b241c" stroke-width="1.5"/>
  <text x="450" y="650" text-anchor="middle" dominant-baseline="middle" fill="white">1</text>
  <circle cx="150" cy="350" r="14" fill="#3a86ff" stroke="#1a1a2e" stroke-width="1.5"/>
  <text x="150" y="350" text-anchor="middle" dominant-baseline="middle" fill="white">2</text>
  <circle cx="450" cy="50" r="14" fill="#3a86ff" stroke="#1a1a2e" stroke-width="1.5"/>
  <text x="450" y="50" text-anchor="middle" dominant-baseline="middle" fill="white">3</text>
</g>
<g font-family="sans-serif" font-size="11" fill="#495057">
  <text x="10" y="18">V=4  E=6</text>
  <circle cx="10" cy="34" r="5" fill="#27ae60"/><text x="20" y="38">s=0</text>
  <circle cx="10" cy="50" r="5" fill="#e74c3c"/><text x="20" y="54">t=1</text>
</g>
</svg>
