<?xml version="1.0" encoding="UTF-8"?>
<svg xmlns="http://www.w3.org/2000/svg" width="900" height="700" viewBox="0 0 900 700">
<rect width="100%" height="100%" fill="#f8f9fa"/>
<g stroke="#8e9aaf" stroke-width="1.5">
  <line x1="130.304" y1="158.805" x2="124.24" y2="182.627"/>
  <line x1="122.545" y1="153.622" x2="67.916" y2="194.481"/>
  <line x1="109.369" y1="204.295" x2="104.298" y2="207.892"/>
  <line x1="107.692" y1="191.245" x2="47.8692" y2="168.632"/>
  <line x1="86.1054" y1="203.74" x2="45.5818" y2="130.447"/>
  <line x1="106.595" y1="218.799" x2="247.53" y2="247.64"/>
  <line x1="49.8672" y1="190.649" x2="41.6112" y2="175.898"/>
  <line x1="57.9394" y1="188.92" x2="65.3929" y2="104.725"/>
  <line x1="36.0104" y1="149.736" x2="37.571" y2="132.14"/>
  <line x1="44.1894" y1="153.321" x2="94.0682" y2="98.4372"/>
  <line x1="52.7714" y1="117.187" x2="123.208" y2="112.104"/>
  <line x1="50.8414" y1="125.349" x2="249.212" y2="243.292"/>
  <line x1="80.5899" y1="89.7558" x2="89.5215" y2="89.1007"/>
  <line x1="115.043" y1="95.9753" x2="125.613" y2="103.198"/>
  <line x1="146.482" y1="121.553" x2="251.936" y2="239.99"/>
  <line x1="274.049" y1="256.11" x2="476.009" y2="345.441"/>
  <line x1="270.175" y1="261.229" x2="390.037" y2="405.961"/>
  <line x1="274.792" y1="253.981" x2="413.357" y2="290.141"/>
  <line x1="486" y1="364.819" x2="480.494" y2="391.671"/>
  <line x1="477.508" y1="359.363" x2="410.271" y2="408.485"/>
  <line x1="465.248" y1="411.818" x2="459.031" y2="415.035"/>
  <line x1="464.775" y1="399.964" x2="395.259" y2="370.764"/>
  <line x1="438.778" y1="409.854" x2="392.801" y2="341.557"/>
  <line x1="460.305" y1="424.309" x2="605.399" y2="454.382"/>
  <line x1="394.66" y1="403.422" x2="386.657" y2="378.663"/>
  <line x1="402.066" y1="403.091" x2="423.805" y2="307.328"/>
  <line x1="383.389" y1="351.381" x2="383.945" y2="343.905"/>
  <line x1="392.968" y1="356.217" x2="453.929" y2="303.82"/>
  <line x1="398.876" y1="328.211" x2="477.653" y2="318.386"/>
  <line x1="397.283" y1="336.63" x2="606.808" y2="450.537"/>
  <line x1="440.899" y1="294.054" x2="450.552" y2="294.315"/>
  <line x1="475.408" y1="303.528" x2="480.685" y2="307.82"/>
  <line x1="500.954" y1="327.021" x2="609.699" y2="446.856"/>
  <line x1="632.111" y1="462.412" x2="843.933" y2="546.931"/>
  <line x1="628.415" y1="467.682" x2="753.686" y2="608.439"/>
  <line x1="632.741" y1="460.408" x2="770.484" y2="492.579"/>
  <line x1="854.808" y1="565.957" x2="853.725" y2="572.998"/>
  <line x1="845.525" y1="560.231" x2="774.405" y2="610.786"/>
  <line x1="840.306" y1="595.112" x2="835.193" y2="598.859"/>
  <line x1="837.818" y1="584.358" x2="760.187" y2="570.401"/>
  <line x1="813.645" y1="597.607" x2="755.075" y2="543.192"/>
  <line x1="758.662" y1="605.584" x2="750.74" y2="581.237"/>
  <line x1="765.361" y1="605.098" x2="781.75" y2="509.562"/>
  <line x1="745.759" y1="553.939" x2="745.467" y2="547.648"/>
  <line x1="756.426" y1="558.145" x2="808.403" y2="507.414"/>
  <line x1="758.691" y1="531.782" x2="831.373" y2="521.924"/>
  <line x1="798.097" y1="496.526" x2="804.442" y2="496.872"/>
  <line x1="829.166" y1="506.61" x2="834.502" y2="511.068"/>
</g>
<g font-family="sans-serif" font-size="11" font-weight="bold">
  <circle cx="133.757" cy="145.237" r="14" fill="#27ae60" stroke="#145a32" stroke-width="1.5"/>
  <text x="133.757" y="145.237" text-anchor="middle" dominant-baseline="middle" fill="white">0</text>
  <circle cx="120.787" cy="196.195" r="14" fill="#3a86ff" stroke="#1a1a2e" stroke-width="1.5"/>
  <text x="120.787" y="196.195" text-anchor="middle" dominant-baseline="middle" fill="white">1</text>
  <circle cx="92.8795" cy="215.992" r="14" fill="#3a86ff" stroke="#1a1a2e" stroke-width="1.5"/>
  <text x="92.8795" y="215.992" text-anchor="middle" dominant-baseline="middle" fill="white">2</text>
  <circle cx="56.7048" cy="202.866" r="14" fill="#3a86ff" stroke="#1a1a2e" stroke-width="1.5"/>
  <text x="56.7048" y="202.866" text-anchor="middle" dominant-baseline="middle" fill="white">3</text>
  <circle cx="34.7736" cy="163.682" r="14" fill="#3a86ff" stroke="#1a1a2e" stroke-width="1.5"/>
  <text x="34.7736" y="163.682" text-anchor="middle" dominant-baseline="middle" fill="white">4</text>
  <circle cx="38.8077" cy="118.195" r="14" fill="#3a86ff" stroke="#1a1a2e" stroke-width="1.5"/>
  <text x="38.8077" y="118.195" text-anchor="middle" dominant-baseline="middle" fill="white">5</text>
  <circle cx="66.6274" cy="90.7799" r="14" fill="#3a86ff" stroke="#1a1a2e" stroke-width="1.5"/>
  <text x="66.6274" y="90.7799" text-anchor="middle" dominant-baseline="middle" fill="white">6</text>
  <circle cx="103.484" cy="88.0766" r="14" fill="#3a86ff" stroke="#1a1a2e" stroke-width="1.5"/>
  <text x="103.484" y="88.0766" text-anchor="middle" dominant-baseline="middle" fill="white">7</text>
  <circle cx="137.172" cy="111.097" r="14" fill="#3a86ff" stroke="#1a1a2e" stroke-width="1.5"/>
  <text x="137.172" y="111.097" text-anchor="middle" dominant-baseline="middle" fill="white">8</text>
  <circle cx="261.246" cy="250.446" r="17" fill="white" stroke="#3a86ff" stroke-width="2"/>
  <circle cx="261.246" cy="250.446" r="14" fill="#3a86ff" stroke="#1a1a2e" stroke-width="1.5"/>
  <text x="261.246" y="250.446" text-anchor="middle" dominant-baseline="middle" fill="white">9</text>
  <circle cx="488.812" cy="351.104" r="14" fill="#8338ec" stroke="#1a1a2e" stroke-width="1.5"/>
  <text x="488.812" y="351.104" text-anchor="middle" dominant-baseline="middle" fill="white">10</text>
  <circle cx="477.682" cy="405.385" r="14" fill="#8338ec" stroke="#1a1a2e" stroke-width="1.5"/>
  <text x="477.682" y="405.385" text-anchor="middle" dominant-baseline="middle" fill="white">11</text>
  <circle cx="446.596" cy="421.468" r="14" fill="#8338ec" stroke="#1a1a2e" stroke-width="1.5"/>
  <text x="446.596" y="421.468" text-anchor="middle" dominant-baseline="middle" fill="white">12</text>
  <circle cx="398.966" cy="416.744" r="14" fill="#8338ec" stroke="#1a1a2e" stroke-width="1.5"/>
  <text x="398.966" y="416.744" text-anchor="middle" dominant-baseline="middle" fill="white">13</text>
  <circle cx="382.351" cy="365.342" r="14" fill="#8338ec" stroke="#1a1a2e" stroke-width="1.5"/>
  <text x="382.351" y="365.342" text-anchor="middle" dominant-baseline="middle" fill="white">14</text>
  <circle cx="384.983" cy="329.943" r="14" fill="#8338ec" stroke="#1a1a2e" stroke-width="1.5"/>
  <text x="384.983" y="329.943" text-anchor="middle" dominant-baseline="middle" fill="white">15</text>
  <circle cx="426.904" cy="293.675" r="14" fill="#8338ec" stroke="#1a1a2e" stroke-width="1.5"/>
  <text x="426.904" y="293.675" text-anchor="middle" dominant-baseline="middle" fill="white">16</text>
  <circle cx="464.546" cy="294.694" r="14" fill="#8338ec" stroke="#1a1a2e" stroke-width="1.5"/>
  <text x="464.546" y="294.694" text-anchor="middle" dominant-baseline="middle" fill="white">17</text>
  <circle cx="491.546" cy="316.654" r="14" fill="#8338ec" stroke="#1a1a2e" stroke-width="1.5"/>
  <text x="491.546" y="316.654" text-anchor="middle" dominant-baseline="middle" fill="white">18</text>
  <circle cx="619.107" cy="457.224" r="17" fill="white" stroke="#8338ec" stroke-width="2"/>
  <circle cx="619.107" cy="457.224" r="14" fill="#8338ec" stroke="#1a1a2e" stroke-width="1.5"/>
  <text x="619.107" y="457.224" text-anchor="middle" dominant-baseline="middle" fill="white">19</text>
  <circle cx="856.936" cy="552.119" r="14" fill="#3a86ff" stroke="#1a1a2e" stroke-width="1.5"/>
  <text x="856.936" y="552.119" text-anchor="middle" dominant-baseline="middle" fill="white">20</text>
  <circle cx="851.597" cy="586.835" r="14" fill="#3a86ff" stroke="#1a1a2e" stroke-width="1.5"/>
  <text x="851.597" y="586.835" text-anchor="middle" dominant-baseline="middle" fill="white">21</text>
  <circle cx="823.902" cy="607.136" r="14" fill="#3a86ff" stroke="#1a1a2e" stroke-width="1.5"/>
  <text x="823.902" y="607.136" text-anchor="middle" dominant-baseline="middle" fill="white">22</text>
  <circle cx="762.994" cy="618.897" r="14" fill="#3a86ff" stroke="#1a1a2e" stroke-width="1.5"/>
  <text x="762.994" y="618.897" text-anchor="middle" dominant-baseline="middle" fill="white">23</text>
  <circle cx="746.408" cy="567.924" r="14" fill="#3a86ff" stroke="#1a1a2e" stroke-width="1.5"/>
  <text x="746.408" y="567.924" text-anchor="middle" dominant-baseline="middle" fill="white">24</text>
  <circle cx="744.818" cy="533.664" r="14" fill="#3a86ff" stroke="#1a1a2e" stroke-width="1.5"/>
  <text x="744.818" y="533.664" text-anchor="middle" dominant-baseline="middle" fill="white">25</text>
  <circle cx="784.117" cy="495.763" r="14" fill="#3a86ff" stroke="#1a1a2e" stroke-width="1.5"/>
  <text x="784.117" y="495.763" text-anchor="middle" dominant-baseline="middle" fill="white">26</text>
  <circle cx="818.422" cy="497.635" r="14" fill="#3a86ff" stroke="#1a1a2e" stroke-width="1.5"/>
  <text x="818.422" y="497.635" text-anchor="middle" dominant-baseline="middle" fill="white">27</text>
  <circle cx="845.246" cy="520.043" r="14" fill="#e74c3c" stroke="#7b241c" stroke-width="1.5"/>
  <text x="845.246" y="520.043" text-anchor="middle" dominant-baseline="middle" fill="white">28</text>
</g>
<g font-family="sans-serif" font-size="11" fill="#495057">
  <text x="10" y="18">V=29  E=48</text>
  <circle cx="10" cy="34" r="5" fill="#27ae60"/><text x="20" y="38">s=0</text>
  <circle cx="10" cy="50" r="5" fill="#e74c3c"/><text x="20" y="54">t=28</text>
  <circle cx="10" cy="66" r="8" fill="#3a86ff" stroke="#1a1a2e" stroke-width="1.5"/><circle cx="10" cy="66" r="11" fill="white" stroke="#3a86ff" stroke-width="2"/><text x="26" y="70">точка сочленения</text>
  <text x="10" y="86">цвет = блок (жадная раскраска)</text>
</g>
</svg>
